<svg width="393" height="76" viewBox="0 0 393 76" fill="none" xmlns="http://www.w3.org/2000/svg">
<rect width="393" height="76" fill="white"/>
<path d="M86.8233 47.824H93.1593V52H84.0153C82.4313 50.512 81.2313 48.628 80.4153 46.348C79.5993 44.068 79.1913 41.728 79.1913 39.328C79.1913 36.904 79.6473 34.576 80.5593 32.344C81.4713 30.112 82.8273 28.264 84.6273 26.8H93.1593V31.12H86.8233C86.1753 31.864 85.6113 33.064 85.1313 34.72C84.6753 36.376 84.4473 37.96 84.4473 39.472C84.4473 40.984 84.6753 42.568 85.1313 44.224C85.6113 45.88 86.1753 47.08 86.8233 47.824ZM104.681 43.972V37.384H102.197V33.604H104.681V28.6H109.469V33.604H112.421V37.384H109.469V45.124C109.469 46.588 109.721 47.62 110.225 48.22H112.421V52H107.309C106.037 50.824 105.269 49.552 105.005 48.184C104.789 47.032 104.681 45.628 104.681 43.972ZM114.356 41.884V33.604H119.144V41.92C119.144 44.008 119.564 45.748 120.404 47.14H122.528C123.32 45.772 123.716 44.032 123.716 41.92V33.604H128.504V41.632C128.504 43.432 128.264 45.016 127.784 46.384C127.328 47.752 126.572 49.3 125.516 51.028L123.104 54.952C122.672 55.696 122.216 56.248 121.736 56.608C121.256 56.968 120.632 57.232 119.864 57.4H114.176V53.62H118.064C118.568 53.476 118.988 53.224 119.324 52.864C119.66 52.504 120.008 51.988 120.368 51.316L120.584 50.92H118.1C116.948 49.984 116.036 48.724 115.364 47.14C114.692 45.532 114.356 43.78 114.356 41.884ZM142.321 47.824H145.561C146.233 46.984 146.761 45.76 147.145 44.152C147.553 42.544 147.757 40.948 147.757 39.364C147.757 35.596 147.049 32.848 145.633 31.12H142.321V47.824ZM137.425 52V26.8H147.865C151.273 29.824 152.977 33.928 152.977 39.112C152.977 44.272 151.381 48.568 148.189 52H137.425ZM163.921 43.684H160.069C159.565 44.308 159.313 45.088 159.313 46.024C159.313 46.96 159.577 47.692 160.105 48.22H163.921V43.684ZM156.181 33.604H165.109C166.549 34.468 167.497 35.464 167.953 36.592C168.409 37.696 168.637 39.208 168.637 41.128V46.528C168.637 48.52 168.685 50.344 168.781 52H164.677L164.029 50.704C163.093 51.568 161.773 52 160.069 52H157.801C155.761 50.656 154.741 48.724 154.741 46.204C154.741 43.66 155.785 41.656 157.873 40.192H161.257C162.193 40.192 163.069 40.48 163.885 41.056V39.256C163.885 38.32 163.477 37.696 162.661 37.384H156.181V33.604ZM179.726 33.604H183.542C184.598 34.948 185.318 36.292 185.702 37.636C186.086 38.98 186.278 40.66 186.278 42.676V52H181.49V42.316C181.49 40.036 181.178 38.392 180.554 37.384H176.522V52H171.734V33.604H175.478L176.126 34.9C176.654 34.42 177.146 34.084 177.602 33.892C178.082 33.7 178.79 33.604 179.726 33.604ZM203.173 33.604V50.092C203.173 51.916 202.933 53.38 202.453 54.484C201.997 55.588 201.073 56.56 199.681 57.4H191.473V53.656H197.629C198.229 53.296 198.529 52.72 198.529 51.928V49.804C197.641 50.548 196.225 50.92 194.281 50.92H191.653C189.709 48.592 188.737 45.892 188.737 42.82C188.737 40.612 189.049 38.812 189.673 37.42C190.297 36.004 191.209 34.732 192.409 33.604H195.073C196.633 33.604 197.869 34.108 198.781 35.116L199.429 33.604H203.173ZM198.385 37.384H194.893C194.029 38.872 193.597 40.588 193.597 42.532C193.597 44.452 193.969 46.036 194.713 47.284H198.385V37.384ZM214.432 37.384H211.732C211.372 37.816 211.072 38.416 210.832 39.184C210.616 39.952 210.508 40.696 210.508 41.416H215.656C215.704 40.696 215.608 39.952 215.368 39.184C215.128 38.392 214.816 37.792 214.432 37.384ZM219.328 48.22V52H210.184C208.504 50.872 207.316 49.48 206.62 47.824C205.948 46.144 205.612 44.452 205.612 42.748C205.612 38.812 207.1 35.764 210.076 33.604H215.908C217.516 34.78 218.608 36.028 219.184 37.348C219.76 38.668 220.048 40 220.048 41.344C220.048 42.688 219.94 43.84 219.724 44.8H210.76C210.832 45.352 211.036 45.988 211.372 46.708C211.732 47.404 212.116 47.908 212.524 48.22H219.328ZM222.5 52V33.604H225.92L226.82 35.548C227.78 34.252 228.992 33.604 230.456 33.604H231.86V38.428H227.288V52H222.5ZM235.373 33.604H243.329V37.384H237.713L241.133 42.46C242.669 44.644 243.521 46.144 243.689 46.96C243.785 47.344 243.833 47.74 243.833 48.148C243.833 49.852 243.197 51.136 241.925 52H232.745V48.22H239.333L235.481 42.568C235.313 42.304 235.049 41.932 234.689 41.452C234.353 40.972 234.089 40.588 233.897 40.3C233.705 39.988 233.573 39.76 233.501 39.616C233.429 39.472 233.333 39.292 233.213 39.076C233.093 38.836 233.009 38.632 232.961 38.464C232.865 38.008 232.817 37.636 232.817 37.348C232.817 35.596 233.669 34.348 235.373 33.604ZM262.833 52L262.077 48.004H256.389L255.633 52H250.737L255.597 26.8H263.049L267.657 52H262.833ZM259.161 31.48L257.757 39.868L256.965 44.152H261.465L260.637 39.868L259.233 31.48H259.161ZM274.325 26.8V52H269.573V26.8H274.325ZM285.729 37.384H283.029C282.669 37.816 282.369 38.416 282.129 39.184C281.913 39.952 281.805 40.696 281.805 41.416H286.953C287.001 40.696 286.905 39.952 286.665 39.184C286.425 38.392 286.113 37.792 285.729 37.384ZM290.625 48.22V52H281.481C279.801 50.872 278.613 49.48 277.917 47.824C277.245 46.144 276.909 44.452 276.909 42.748C276.909 38.812 278.397 35.764 281.373 33.604H287.205C288.813 34.78 289.905 36.028 290.481 37.348C291.057 38.668 291.345 40 291.345 41.344C291.345 42.688 291.237 43.84 291.021 44.8H282.057C282.129 45.352 282.333 45.988 282.669 46.708C283.029 47.404 283.413 47.908 283.821 48.22H290.625ZM293.797 52V33.604H297.217L298.117 35.548C299.077 34.252 300.289 33.604 301.753 33.604H303.157V38.428H298.585V52H293.797ZM306.302 43.972V37.384H303.818V33.604H306.302V28.6H311.09V33.604H314.042V37.384H311.09V45.124C311.09 46.588 311.342 47.62 311.846 48.22H314.042V52H308.93C307.658 50.824 306.89 49.552 306.626 48.184C306.41 47.032 306.302 45.628 306.302 43.972Z" fill="#343333"/>
<path d="M96.0523 47.14H100.084V52H96.0523V47.14ZM100.624 26.8L100.084 38.32V43.324H96.0523V38.32L95.5123 26.8H100.624Z" fill="#DD2424"/>
</svg>
